<?xml version="1.0" encoding="UTF-8"?>
<svg id="Layer_2" data-name="Layer 2" xmlns="http://www.w3.org/2000/svg" viewBox="0 0 3594.81 243.66">
  <defs>
    <style>
      .cls-1 {
        fill: #fff;
      }
    </style>
  </defs>
  <g id="Layer_1-2" data-name="Layer 1">
    <g>
      <g>
        <path class="cls-1" d="M215.62,117.99c19.7-10.41,30.79-28.41,30.79-50.59,0-26.86-13.2-58.89-76.11-58.89H0v228.89h184.39c47.57,0,74.85-23.29,74.85-63.9,0-27.02-15.03-46.07-43.62-55.51ZM48.92,46.8h109.8c35.02,0,39.07,16.4,39.07,28.74,0,19.7-13.15,29.68-39.07,29.68H48.92v-58.42ZM171.25,199.12H48.92v-59.99h122.32c17.11,0,37.51,5.15,37.51,29.68,0,20.68-11.92,30.31-37.51,30.31ZM888.03,8.52l-123.64,228.89h-63.01L577.74,8.52h53.01l102.44,190.47L835.32,8.52h52.7ZM558.58,171.31c0,64.13-69.27,72.35-129.62,72.35-45.9,0-91.1-5.09-126.54-14.09v-40.53c5.57,1.83,11.72,3.54,18.44,5.12,29.85,7.02,70.26,11.21,108.1,11.21,65.93,0,79.45-13.12,79.45-32.81,0-23.22-15.51-26.6-81.86-30.94l-12.55-.94c-89.26-5.46-120.91-24.14-120.91-71.4,0-44.68,40.66-66.4,124.3-66.4,45.23,0,93.48,7.12,129.17,19.05v40.09c-30.02-14.89-90.29-20.86-132.61-20.86-58.86,0-70.68,10.76-70.68,28.12,0,21.96,14.37,28.04,76.88,32.51l13.15.94c77.69,5.57,125.3,11.87,125.3,68.58Z"/>
        <path class="cls-1" d="M1269.05,190.45l42.02-21.01c7.58,16.87,23.76,25.48,47.87,25.48,21.7,0,38.23-8.95,38.23-25.48,0-19.29-18.25-22.39-42.36-26.52-34.78-5.85-81.96-18.25-81.96-70.6,0-40.64,36.51-71.63,84.37-71.63,38.23,0,71.29,17.56,86.1,50.62l-42.02,21.01c-7.58-14.81-22.73-25.14-46.15-25.14-18.94,0-32.03,8.95-32.03,23.07,0,18.6,19.29,23.42,44.43,27.89,34.44,5.86,79.9,18.25,79.9,70.94,0,41.67-39.26,71.98-88.51,71.98-41.67,0-75.08-17.56-89.89-50.62Z"/>
        <path class="cls-1" d="M1505.98,190.45l42.02-21.01c7.58,16.87,23.76,25.48,47.87,25.48,21.7,0,38.23-8.95,38.23-25.48,0-19.29-18.25-22.39-42.36-26.52-34.78-5.85-81.96-18.25-81.96-70.6,0-40.64,36.51-71.63,84.37-71.63,38.23,0,71.29,17.56,86.1,50.62l-42.02,21.01c-7.58-14.81-22.73-25.14-46.15-25.14-18.94,0-32.03,8.95-32.03,23.07,0,18.6,19.29,23.42,44.43,27.89,34.44,5.86,79.9,18.25,79.9,70.94,0,41.67-39.26,71.98-88.51,71.98-41.67,0-75.08-17.56-89.89-50.62Z"/>
        <path class="cls-1" d="M1739.47,120.88c0-68.19,52-120.19,120.54-120.19s120.88,52,120.88,120.19-52.35,120.19-120.88,120.19-120.54-51.66-120.54-120.19ZM1928.88,120.88c0-40.98-29.96-72.67-68.88-72.67s-68.88,31.68-68.88,72.67,30.31,72.67,68.88,72.67,68.88-31.68,68.88-72.67Z"/>
        <path class="cls-1" d="M2032.19,120.88c0-67.16,52.69-120.53,120.19-120.53,40.29,0,78.86,21.35,96.08,57.51l-40.98,23.07c-11.37-19.97-29.27-32.72-57.17-32.72-38.57,0-66.47,30.65-66.47,72.67s27.55,72.67,66.47,72.67c27.9,0,46.49-12.74,57.17-32.72l40.98,23.07c-17.22,36.16-55.79,57.51-96.08,57.51-67.5,0-120.19-53.38-120.19-120.54Z"/>
        <path class="cls-1" d="M2362.1,4.82v231.77h-50.28V4.82h50.28Z"/>
        <path class="cls-1" d="M2891.58,51.31h-68.19v185.28h-50.28V51.31h-68.19V4.82h186.66v46.49Z"/>
        <path class="cls-1" d="M3005.57,4.82v231.77h-50.28V4.82h50.28Z"/>
        <path class="cls-1" d="M3075.82,120.88c0-68.19,52-120.19,120.54-120.19s120.88,52,120.88,120.19-52.35,120.19-120.88,120.19-120.54-51.66-120.54-120.19ZM3265.24,120.88c0-40.98-29.96-72.67-68.88-72.67s-68.88,31.68-68.88,72.67,30.31,72.67,68.88,72.67,68.88-31.68,68.88-72.67Z"/>
        <path class="cls-1" d="M3385.07,236.59V36.5c0-23.07,16.87-36.5,35.82-36.5,15.15,0,27.21,5.51,34.78,18.25l91.61,157.04V4.82h47.53v200.09c0,23.07-16.87,36.16-35.13,36.16-14.81,0-27.55-5.17-35.13-17.91l-91.61-158.07v171.51h-47.87Z"/>
      </g>
      <polygon class="cls-1" points="2688.41 237.72 2420.78 237.72 2460.08 169.67 2554.6 5.95 2688.41 237.72"/>
      <path class="cls-1" d="M1225.63,232.86l-108.76-217.78c-4.72-9.23-13.12-14.77-22.6-14.77s-17.88,5.55-22.55,14.77l-109.12,217.67-1.87,3.73h51.89l1.71.05.73-1.55,24.31-54.69h108.55l23.85,54.74.67,1.56h55.05l-1.87-3.73ZM1094.27,70.71c1.66,0,3.06.99,3.94,2.7l31.93,63.09h-71.69l31.93-63.09c.88-1.71,2.28-2.7,3.89-2.7Z"/>
    </g>
  </g>
</svg>